<?xml version="1.0" encoding="UTF-8"?>
<svg version="1.1" xmlns="http://www.w3.org/2000/svg" width="1500" height="1500">
<path d="M0 0 C495 0 990 0 1500 0 C1500 495 1500 990 1500 1500 C1005 1500 510 1500 0 1500 C0 1005 0 510 0 0 Z " fill="#1800AD" transform="translate(0,0)"/>
<path d="M0 0 C1.39453561 -0.00352835 1.39453561 -0.00352835 2.81724367 -0.00712797 C5.94980808 -0.01381433 9.08233097 -0.01335986 12.21490192 -0.01294994 C14.47660632 -0.01624878 16.73831012 -0.01997439 19.00001317 -0.02409142 C25.22887519 -0.03411705 31.45772757 -0.03782912 37.68659651 -0.04048073 C43.71014074 -0.04398161 49.73367768 -0.05212868 55.75721731 -0.06002467 C71.89581431 -0.08086405 88.03441312 -0.09133771 104.17302043 -0.10015428 C111.8073747 -0.10436114 119.44172818 -0.10958305 127.07608179 -0.11483881 C153.20852832 -0.13272775 179.34097508 -0.14772422 205.47342682 -0.155159 C207.11385849 -0.15563375 208.75429016 -0.15610964 210.39472182 -0.15658666 C211.61498013 -0.15694122 211.61498013 -0.15694122 212.85989012 -0.15730295 C216.98150803 -0.15850415 221.10312594 -0.1597196 225.22474384 -0.16094494 C226.04269046 -0.16118509 226.86063708 -0.16142524 227.70336995 -0.16167267 C254.2275717 -0.1695669 280.75172874 -0.19300193 307.27591097 -0.22550088 C335.31798621 -0.25979694 363.36003529 -0.27950988 391.40213186 -0.28280324 C394.4803399 -0.28322078 397.55854792 -0.28370034 400.63675594 -0.28422642 C401.77367027 -0.28441121 401.77367027 -0.28441121 402.93355256 -0.28459973 C415.13166681 -0.2869319 427.32972914 -0.3025927 439.52782489 -0.32306826 C451.78807454 -0.34332173 464.04826182 -0.34880581 476.30852511 -0.33929763 C482.9506964 -0.33454014 489.59273471 -0.33670209 496.23489285 -0.35605907 C502.31518603 -0.37362587 508.39518673 -0.37274554 514.47548274 -0.35716178 C516.6753656 -0.35477588 518.87526837 -0.35915986 521.07512071 -0.37099043 C524.06653875 -0.38608178 527.05691677 -0.37645542 530.04830933 -0.36076355 C531.32793874 -0.37609686 531.32793874 -0.37609686 532.63341925 -0.39173993 C539.51726912 -0.31298613 546.53604026 1.17619301 551.79270108 5.88424067 C555.9754893 10.44964528 558.11733798 15.07584516 558.33875751 21.32172108 C558.39032001 22.18152576 558.44188251 23.04133045 558.49500751 23.92718983 C556.2505882 34.89545327 546.76037736 42.76012714 539.13221455 50.29486561 C537.83984557 51.58610445 536.5483604 52.87822837 535.25768757 54.17116261 C531.77324888 57.65674288 528.27666912 61.12990336 524.77768278 64.60087156 C521.11497251 68.23847526 517.46368369 71.88750771 513.81113911 75.53531361 C506.90260158 82.43144851 499.98393673 89.31732847 493.06152332 96.19953144 C483.70092844 105.50693697 474.35616275 114.8302069 465.0104723 124.15257359 C450.29942552 138.82607637 435.56743074 153.47836194 420.83875751 168.13422108 C488.65375751 168.62922108 488.65375751 168.62922108 557.83875751 169.13422108 C557.83875751 183.32422108 557.83875751 197.51422108 557.83875751 212.13422108 C532.81284613 212.20195443 507.78700902 212.25721246 482.76102924 212.28965759 C471.14090918 212.30512317 459.52085013 212.32620686 447.90076923 212.36053944 C437.77212101 212.39045116 427.64351698 212.40979833 417.51482582 212.41648656 C412.15229859 212.42039579 406.78989778 212.42957675 401.42741108 212.45141125 C396.37792624 212.47180432 391.32861967 212.47804913 386.27909756 212.47354412 C384.42800712 212.47436805 382.5769106 212.48031684 380.72585583 212.4918375 C378.19296011 212.50682586 375.6607321 212.50315176 373.12782001 212.49498463 C372.03634458 212.50809241 372.03634458 212.50809241 370.92281914 212.521465 C364.64687171 212.46699559 359.56611129 210.78331871 354.15125751 207.50922108 C349.51702968 202.74974384 346.55470581 197.75503448 346.33875751 191.00922108 C347.17673704 177.08586898 360.03399118 167.79618798 369.29163837 158.56781483 C370.56426812 157.29549188 371.83667714 156.02294812 373.10888481 154.75020313 C376.49790696 151.36095642 379.88991774 147.97471622 383.28258228 144.5891161 C386.4726922 141.40472648 389.66006196 138.21760091 392.84766865 135.03070545 C402.1544661 125.72914282 411.46562513 116.43194504 420.77625751 107.13422108 C451.99219501 75.94922108 451.99219501 75.94922108 483.83875751 44.13422108 C415.85875751 43.80422108 347.87875751 43.47422108 277.83875751 43.13422108 C277.83875751 98.90422108 277.83875751 154.67422108 277.83875751 212.13422108 C263.64875751 212.13422108 249.45875751 212.13422108 234.83875751 212.13422108 C234.83875751 156.36422108 234.83875751 100.59422108 234.83875751 43.13422108 C156.29875751 43.13422108 77.75875751 43.13422108 -3.16124249 43.13422108 C-3.16124249 56.99422108 -3.16124249 70.85422108 -3.16124249 85.13422108 C0.89575947 85.10803699 4.95276142 85.08185291 9.13270283 85.05487537 C22.55960914 84.97190623 35.98651173 84.91649404 49.41360569 84.87516022 C57.55187569 84.84943862 65.68990188 84.81440473 73.82801533 84.75702381 C80.92574987 84.70700258 88.02330774 84.67488618 95.12121367 84.6637786 C98.87548223 84.65729124 102.62924558 84.64217288 106.38335133 84.60557079 C109.92604298 84.57131393 113.46802746 84.56122678 117.01086903 84.56868267 C118.91233118 84.56667819 120.81371853 84.53993968 122.71497822 84.51212025 C135.45902338 84.58757885 145.79287797 89.16910831 154.83875751 98.13422108 C161.1991218 105.85164584 165.92447625 115.25744612 165.99989033 125.3549242 C166.00949787 126.39701038 166.01910542 127.43909657 166.0290041 128.51276112 C166.03537891 130.19710255 166.03537891 130.19710255 166.04188251 131.91547108 C166.04758259 133.07993763 166.05328266 134.24440418 166.05915546 135.4441576 C166.06860353 137.91212526 166.07513868 140.38010553 166.07899189 142.84808826 C166.08864896 146.5921335 166.11965496 150.33561828 166.15125751 154.07953358 C166.15779286 156.48317617 166.16304124 158.88682267 166.16688251 161.29047108 C166.18540272 162.95052174 166.18540272 162.95052174 166.20429707 164.64410877 C166.16633488 178.1448891 163.02332708 189.45950135 153.66297626 199.45843983 C141.18671115 211.1158827 127.0388224 212.58915902 110.61732197 212.47479725 C108.90143569 212.47394957 107.18554832 212.47442887 105.46966267 212.47612476 C100.8422655 212.47698064 96.21510467 212.45942131 91.58776212 212.43840289 C86.74046532 212.41956773 81.89316229 212.41788028 77.04583454 212.41432667 C67.88049665 212.40502621 58.71526693 212.38043965 49.54997653 212.3502782 C39.10979025 212.31667175 28.66959863 212.30023251 18.22937167 212.28519189 C-3.23424005 212.25388819 -24.69770361 212.19890126 -46.16124249 212.13422108 C-46.16124249 197.94422108 -46.16124249 183.75422108 -46.16124249 169.13422108 C9.60875751 169.13422108 65.37875751 169.13422108 122.83875751 169.13422108 C122.83875751 155.27422108 122.83875751 141.41422108 122.83875751 127.13422108 C118.89769062 127.14993153 114.95662373 127.16564198 110.89613056 127.1818285 C97.85634404 127.23159873 84.81655891 127.26485287 71.77670288 127.28965759 C63.87277778 127.30509385 55.96894299 127.32612097 48.06507587 127.36053944 C41.17207695 127.3905415 34.27914345 127.40981961 27.38608104 127.41648656 C23.73985488 127.42038062 20.09381585 127.42946361 16.44764996 127.45141125 C12.36659208 127.47577497 8.28585478 127.47618418 4.20472431 127.47479725 C3.00997486 127.48558308 1.81522541 127.4963689 0.58427143 127.50748158 C-12.72385552 127.45873124 -23.62391998 124.17832953 -33.48936749 114.95843983 C-43.43911459 104.29009987 -45.47172351 93.91640266 -45.49717999 79.67718983 C-45.50383678 78.3790485 -45.51049358 77.08090717 -45.5173521 75.74342823 C-45.52928147 73.00248354 -45.53303747 70.26166447 -45.53184795 67.52069569 C-45.53164509 64.03410513 -45.55893203 60.54833259 -45.59339237 57.06193542 C-45.62117806 53.70451032 -45.61981491 50.34722808 -45.62217999 46.98968983 C-45.63655102 45.7508353 -45.65092205 44.51198078 -45.66572857 43.23558521 C-45.60337704 31.29985945 -41.91740196 22.21026237 -34.16124249 13.13422108 C-24.17216772 3.39697172 -13.64507616 -0.02340928 0 0 Z " fill="#FBFBFD" transform="translate(186.1612424850464,615.8657789230347)"/>
<path d="M0 0 C8.48100632 5.06675257 13.79761048 11.30240927 17.42578125 20.44921875 C17.82667969 19.82015625 18.22757813 19.19109375 18.640625 18.54296875 C25.38029957 8.39525013 33.18643337 0.24788944 45.42578125 -2.55078125 C58.48687937 -3.99144073 70.70388016 -3.41707156 81.73828125 4.26171875 C91.12432281 11.98125905 96.03265091 21.28763959 97.42578125 33.44921875 C97.55557611 36.56079806 97.55256418 39.6671 97.53930664 42.78100586 C97.53945267 43.68911011 97.53959869 44.59721436 97.53974915 45.53283691 C97.53905626 48.51410365 97.53129324 51.49530677 97.5234375 54.4765625 C97.5215711 56.55164048 97.52014825 58.6267189 97.51914978 60.70179749 C97.51534208 66.14825672 97.50552678 71.59468905 97.4944458 77.0411377 C97.48419405 82.60489539 97.47964411 88.16865745 97.47460938 93.73242188 C97.46390288 104.63803452 97.44632029 115.54362018 97.42578125 126.44921875 C85.54578125 126.44921875 73.66578125 126.44921875 61.42578125 126.44921875 C61.42167236 123.855625 61.41756348 121.26203125 61.41333008 118.58984375 C61.39610442 110.00425006 61.35155561 101.41895301 61.29369068 92.83354187 C61.25945353 87.63001788 61.23431576 82.42678647 61.23022461 77.22314453 C61.22593469 72.19783155 61.1974141 67.17317822 61.15234947 62.14807129 C61.1393967 60.23445483 61.1350589 58.32075934 61.13962746 56.40710449 C61.14454932 53.71860219 61.11837211 51.03201618 61.08520508 48.34375 C61.09383072 47.55899796 61.10245636 46.77424591 61.11134338 45.9657135 C60.99004763 40.07028435 59.14187973 36.02540142 55.42578125 31.44921875 C49.49195628 26.96266816 42.64802466 26.60895774 35.42578125 27.44921875 C30.5138011 29.07000681 27.32157439 31.98588608 24.7434082 36.43505859 C20.95337554 44.40677114 21.69726077 53.16781272 21.71875 61.80078125 C21.70561743 63.66980591 21.69030845 65.53881642 21.67292786 67.4078064 C21.63324726 72.29697225 21.62289837 77.18576539 21.61889648 82.07507324 C21.60953298 87.07620428 21.57209941 92.07711923 21.53710938 97.078125 C21.47270586 106.86853081 21.44192274 116.6586143 21.42578125 126.44921875 C10.20578125 126.44921875 -1.01421875 126.44921875 -12.57421875 126.44921875 C-12.58356445 123.91621094 -12.59291016 121.38320313 -12.60253906 118.7734375 C-12.63636521 110.38742636 -12.69194555 102.00165984 -12.75812149 93.61584473 C-12.79756501 88.53343447 -12.82976887 83.45119668 -12.84521484 78.36865234 C-12.86040194 73.46010875 -12.89488409 68.55203936 -12.94252777 63.64370728 C-12.95732038 61.77475109 -12.96525854 59.90572719 -12.9661026 58.03671265 C-12.96848042 55.41068463 -12.99562459 52.78595848 -13.02832031 50.16015625 C-13.02328995 49.39410568 -13.01825958 48.62805511 -13.01307678 47.83879089 C-13.1298697 41.74260641 -14.79128727 36.39134572 -19.05670547 31.88192749 C-24.24205418 27.38512343 -28.78724737 26.97454231 -35.42578125 27.046875 C-40.45129482 27.68909323 -44.1437855 29.74213766 -47.57421875 33.44921875 C-51.08503821 38.9865594 -52.1627083 43.67415613 -52.12011719 50.16015625 C-52.13045486 50.99037796 -52.14079254 51.82059967 -52.15144348 52.67597961 C-52.1807008 55.39226132 -52.182367 58.10779238 -52.18359375 60.82421875 C-52.19858696 62.71852017 -52.2153165 64.61280856 -52.23370361 66.50708008 C-52.27726123 71.47182846 -52.2973505 76.43640052 -52.31243896 81.40130615 C-52.3320519 86.47597631 -52.37401718 91.55045722 -52.4140625 96.625 C-52.48923927 106.56637975 -52.53753856 116.50762235 -52.57421875 126.44921875 C-64.45421875 126.44921875 -76.33421875 126.44921875 -88.57421875 126.44921875 C-88.57421875 84.20921875 -88.57421875 41.96921875 -88.57421875 -1.55078125 C-77.35421875 -1.55078125 -66.13421875 -1.55078125 -54.57421875 -1.55078125 C-54.24421875 5.70921875 -53.91421875 12.96921875 -53.57421875 20.44921875 C-51.09921875 15.99421875 -51.09921875 15.99421875 -48.57421875 11.44921875 C-45.87810237 7.58620614 -43.19074586 5.24943522 -39.19921875 2.76171875 C-38.28398438 2.18035156 -37.36875 1.59898437 -36.42578125 1 C-26.14955309 -4.58857888 -10.70628411 -4.74539809 0 0 Z " fill="#FCFCFE" transform="translate(1261.57421875,704.55078125)"/>
<path d="M0 0 C8.05362576 6.63741615 14.07784112 13.7400383 15.6875 24.25 C15.82623178 27.34655288 15.81382771 30.43914592 15.80102539 33.53833008 C15.80117142 34.46564941 15.80131744 35.39296875 15.8014679 36.34838867 C15.80077269 39.40546021 15.79299864 42.46247039 15.78515625 45.51953125 C15.78329068 47.64230821 15.78186743 49.76508561 15.78086853 51.88786316 C15.77705433 57.46915887 15.76723339 63.05042846 15.75616455 68.63171387 C15.74592686 74.32934211 15.74136586 80.02697458 15.73632812 85.72460938 C15.72561015 96.89975289 15.7080222 108.07487019 15.6875 119.25 C4.7975 119.25 -6.0925 119.25 -17.3125 119.25 C-17.3125 113.31 -17.3125 107.37 -17.3125 101.25 C-17.9725 101.25 -18.6325 101.25 -19.3125 101.25 C-19.539375 101.95125 -19.76625 102.6525 -20 103.375 C-23.99991551 112.1367197 -31.6689694 116.60682181 -40.4375 119.89453125 C-45.80059406 121.6056719 -50.96549392 121.78671844 -56.5625 121.75 C-57.57521973 121.74427979 -58.58793945 121.73855957 -59.63134766 121.73266602 C-71.50078729 121.45033192 -81.89390054 118.04200508 -90.3125 109.25 C-98.84289302 97.66778534 -99.59094989 86.08903167 -97.953125 72.203125 C-95.86440842 63.3401925 -89.04493644 56.74815958 -81.625 51.875 C-70.37587674 45.81515363 -58.42611069 44.56288857 -45.90234375 43.3762207 C-33.20803118 42.53030761 -33.20803118 42.53030761 -22.00341797 37.38842773 C-19.89903403 34.72710823 -19.74283434 32.62433744 -19.9296875 29.2734375 C-20.79947985 24.67596365 -23.41726324 21.98113225 -26.93359375 19.109375 C-31.11864302 16.80638835 -34.06714207 16.65062901 -38.75 16.75 C-39.83764648 16.72679687 -39.83764648 16.72679687 -40.94726562 16.703125 C-47.15231947 16.74772557 -51.41272268 18.53602077 -56.01953125 22.84765625 C-57.85379523 25.27821807 -59.62282469 27.71548703 -61.3125 30.25 C-63.26904297 30.578125 -63.26904297 30.578125 -65.6796875 30.5 C-66.57526367 30.47292969 -67.47083984 30.44585938 -68.39355469 30.41796875 C-73.41887713 30.12878994 -78.42623065 29.7217989 -83.4375 29.25 C-84.489375 29.15460937 -85.54125 29.05921875 -86.625 28.9609375 C-89.18789348 28.72794718 -91.75034031 28.49090324 -94.3125 28.25 C-90.41047093 14.26772915 -84.33456344 4.50458712 -71.6875 -3 C-51.51011266 -14.21436834 -19.21983427 -13.59359595 0 0 Z " fill="#FDFDFE" transform="translate(1135.3125,711.75)"/>
<path d="M0 0 C0.96357422 -0.01611328 1.92714844 -0.03222656 2.91992188 -0.04882812 C17.50760782 -0.05866473 30.70928415 5.89354245 41.1875 15.96875 C57.475117 32.93501771 58.4375 51.05743278 58.4375 74.3125 C29.7275 74.3125 1.0175 74.3125 -28.5625 74.3125 C-25.90986897 89.17319395 -25.90986897 89.17319395 -16.359375 100.12890625 C-8.33867675 105.41210531 0.4102116 105.47793374 9.75 103.6875 C15.64266911 101.49023355 20.13733352 98.7191287 23.16796875 93.109375 C23.58691406 92.18640625 24.00585938 91.2634375 24.4375 90.3125 C35.43924594 90.95245304 46.43913831 91.61677591 57.4375 92.3125 C56.16955842 102.24962358 50.91431455 111.6568385 43.4375 118.3125 C25.60271662 131.99633059 5.90936233 132.62298925 -15.5625 131.3125 C-20.97810107 130.5583802 -25.71727168 128.84771907 -30.5625 126.3125 C-31.54347656 125.80460938 -32.52445313 125.29671875 -33.53515625 124.7734375 C-48.79612354 115.91493929 -57.58879803 102.20782589 -62.08984375 85.42578125 C-62.24582031 84.72839844 -62.40179687 84.03101563 -62.5625 83.3125 C-62.73233398 82.55590088 -62.90216797 81.79930176 -63.07714844 81.01977539 C-66.63624745 61.16723569 -63.06776328 40.6039429 -51.90234375 23.81640625 C-46.01332535 15.86153629 -39.4930512 10.52495748 -30.75 6 C-30.11070557 5.66218506 -29.47141113 5.32437012 -28.81274414 4.97631836 C-19.70441264 0.48747992 -10.00396723 -0.03359291 0 0 Z " fill="#FCFCFE" transform="translate(966.5625,701.6875)"/>
<path d="M0 0 C46.2 0 92.4 0 140 0 C140 9.9 140 19.8 140 30 C122.84 30 105.68 30 88 30 C88 76.2 88 122.4 88 170 C76.12 170 64.24 170 52 170 C52 123.8 52 77.6 52 30 C34.84 30 17.68 30 0 30 C0 20.1 0 10.2 0 0 Z " fill="#FCFCFE" transform="translate(770,661)"/>
<path d="M0 0 C2.97 0 5.94 0 9 0 C9.33 7.92 9.66 15.84 10 24 C12.64 22.35 15.28 20.7 18 19 C24.91652919 16.69449027 32.79556627 16.99195099 39.4375 20 C45.28994104 23.359206 48.55509934 27.91316678 51.375 33.9375 C52.99536285 41.87727794 52.15693451 47.97574103 48 55 C43.57956011 60.72056927 37.1885439 64.24255751 30.10546875 65.5234375 C21.888103 65.97576956 15.95790201 63.14513311 9 59 C9 60.65 9 62.3 9 64 C6.03 64 3.06 64 0 64 C0 42.88 0 21.76 0 0 Z " fill="#F5F4FB" transform="translate(348,848)"/>
<path d="M0 0 C5.94 -0.103125 11.88 -0.20625 18 -0.3125 C19.85882813 -0.35802002 21.71765625 -0.40354004 23.6328125 -0.45043945 C25.13019006 -0.46506228 26.62758773 -0.47779869 28.125 -0.48828125 C28.88296875 -0.51386108 29.6409375 -0.53944092 30.421875 -0.5657959 C37.08427654 -0.57116188 41.84114851 1.87600688 46.56665039 6.54936218 C50.48194559 11.04955472 51.41914079 14.79417645 51.34375 20.58984375 C50.54438703 26.1944682 46.96739322 30.36574451 42.8125 34 C40 36 40 36 38 36 C38.45439453 36.65597168 38.90878906 37.31194336 39.37695312 37.98779297 C41.42278225 40.94690119 43.4614663 43.91086181 45.5 46.875 C46.57314453 48.42380859 46.57314453 48.42380859 47.66796875 50.00390625 C48.34472656 50.99003906 49.02148438 51.97617187 49.71875 52.9921875 C50.34716797 53.90339355 50.97558594 54.81459961 51.62304688 55.75341797 C53 58 53 58 53 60 C48.95240048 61.21906049 46.02526951 61.37898256 42 60 C35.76948047 54.06339012 31.16385509 45.90963772 28 38 C21.73 38 15.46 38 9 38 C9 45.26 9 52.52 9 60 C6.03 60 3.06 60 0 60 C0 40.2 0 20.4 0 0 Z " fill="#FBFBFD" transform="translate(199,852)"/>
<path d="M0 0 C4.91563156 3.45381817 9.14238687 7.79234168 10.53515625 13.78125 C11.55053669 21.5426512 9.8885824 27.30307474 5.53515625 33.78125 C0.2578502 39.42674019 -6.2854994 42.31160745 -13.90625 43.16796875 C-23.93595632 43.48173518 -31.53288046 41.42407757 -38.95703125 34.53515625 C-43.54060284 29.20348878 -45.18416009 23.14619858 -44.83984375 16.1953125 C-43.75040117 9.18202591 -40.02623998 4.62028848 -34.578125 0.2578125 C-24.20106832 -6.9927003 -10.73576308 -6.12646507 0 0 Z " fill="#F7F6FC" transform="translate(315.46484375,870.21875)"/>
<path d="M0 0 C6.2592513 3.21964872 11.72218066 7.1120487 14 14 C14.90132578 20.37632125 15.25162188 26.77460671 11.9375 32.5 C7.28877374 38.59818867 1.66806753 43.50589989 -6 45 C-16.2849271 45.99531553 -24.00074491 44.59955305 -32.8125 39.3125 C-37.76666211 34.07524292 -40.30811722 29.16654557 -40.5 21.875 C-40.1592271 14.42532578 -37.98053649 9.61727758 -33 4 C-22.95534149 -3.06959935 -11.46354126 -4.20329846 0 0 Z " fill="#F7F7FC" transform="translate(457,868)"/>
<path d="M0 0 C0.83370754 21.46796903 0.83370754 21.46796903 -5.73046875 28.98046875 C-12.01881375 35.06798836 -18.43004835 37.09003025 -27.0625 37.4375 C-32.49299859 37.29204022 -36.60345186 36.23665478 -41 33 C-44.23057121 29.56100484 -45.15466359 26.28059492 -45.25 21.625 C-45.27578125 20.87476563 -45.3015625 20.12453125 -45.328125 19.3515625 C-44.89489886 16.24677519 -43.8758801 14.506599 -42 12 C-34.29651078 6.28493278 -25.5324821 4.95416095 -16.3125 3.65625 C-11.71352257 3.00156253 -7.32253517 1.87198533 -2.87109375 0.55078125 C-1 0 -1 0 0 0 Z " fill="#1B03AE" transform="translate(1116,772)"/>
<path d="M0 0 C5.66342223 3.57289725 10.46039701 8.97839523 12.328125 15.46875 C12.328125 18.10875 12.328125 20.74875 12.328125 23.46875 C-5.161875 23.46875 -22.651875 23.46875 -40.671875 23.46875 C-39.61804393 15.03810143 -38.02065137 9.18317059 -31.44921875 3.5703125 C-21.60240356 -3.16957769 -11.19513322 -5.05586662 0 0 Z " fill="#1A03AD" transform="translate(978.671875,730.53125)"/>
<path d="M0 0 C1.765625 2.140625 1.765625 2.140625 3 4 C1.68 5.65 0.36 7.3 -1 9 C-1.70125 8.71125 -2.4025 8.4225 -3.125 8.125 C-8.72593776 5.9333287 -13.17385277 4.74139615 -19.25 4.8125 C-20.47203125 4.81894531 -21.6940625 4.82539062 -22.953125 4.83203125 C-25.91722201 4.79306844 -25.91722201 4.79306844 -28 6 C-28.25030977 8.41619823 -28.25030977 8.41619823 -28 11 C-24.41579188 13.38947208 -20.95076122 14.00478835 -16.8125 14.875 C-1.61357342 18.2601719 -1.61357342 18.2601719 3 24 C3.77881704 28.07733626 3.3828333 31.92328134 2 35.8125 C-1.99746357 40.18472578 -8.13617802 42.77283077 -14.00390625 43.23828125 C-23.83071104 43.44323108 -31.19783575 42.16053241 -39 36 C-37.60667426 32.63279613 -36.0210714 31.0140476 -33 29 C-32.0925 29.639375 -31.185 30.27875 -30.25 30.9375 C-25.67594143 33.84026794 -22.44025916 34.13856307 -17.0625 34.125 C-16.04285156 34.12757813 -15.02320313 34.13015625 -13.97265625 34.1328125 C-11.20411275 34.00911936 -8.69460465 33.62526738 -6 33 C-6 31.02 -6 29.04 -6 27 C-7.18335938 26.75765625 -8.36671875 26.5153125 -9.5859375 26.265625 C-30.56064693 21.86612756 -30.56064693 21.86612756 -36.625 16.8125 C-38.57989663 12.8138478 -38.78611695 9.36731639 -38 5 C-35.46655199 0.68375525 -32.06919925 -1.9979555 -27.2890625 -3.55859375 C-18.32533207 -5.28709467 -7.8399916 -5.08031456 0 0 Z " fill="#F4F3FB" transform="translate(683,870)"/>
<path d="M0 0 C3.125 2.25 3.125 2.25 5 4 C3.79618552 6.49361571 2.54571278 8.68143083 1 11 C-1.47854681 10.02440179 -3.93333419 9.03024244 -6.359375 7.9296875 C-11.9062005 5.4825586 -16.92526616 3.71307254 -23 5 C-27.36161113 6.9668539 -30.33531629 9.00297444 -33 13 C-33.35599164 15.80144454 -33.35599164 15.80144454 -33.3125 18.875 C-33.32925781 19.90367187 -33.34601562 20.93234375 -33.36328125 21.9921875 C-32.86956681 26.07993068 -31.53518843 28.76263104 -28.30859375 31.36328125 C-22.90104704 34.10656695 -18.02241805 35.10652862 -12 34 C-9.27193986 32.83195126 -6.76929641 31.52421885 -4.2265625 29.99609375 C-2 29 -2 29 0.1796875 29.2265625 C2.66892712 30.28422225 3.61592492 31.71627613 5 34 C5 34.66 5 35.32 5 36 C2.8967433 36.98111975 0.79236311 37.95983134 -1.3125 38.9375 C-2.48425781 39.48277344 -3.65601563 40.02804687 -4.86328125 40.58984375 C-12.1398432 43.86112503 -20.04065625 44.12673873 -27.75 41.9375 C-33.92505347 39.5460702 -38.41037454 35.43411399 -42 29.9375 C-44.14697203 23.69433134 -44.34158623 15.68076223 -42.0859375 9.4921875 C-38.72197136 3.78429657 -33.54206012 -1.08040342 -27.3046875 -3.4921875 C-17.94434011 -5.55463692 -8.35209498 -4.75426945 0 0 Z " fill="#F6F5FB" transform="translate(623,870)"/>
<path d="M0 0 C4.38517294 2.20813673 7.20440032 4.91832092 9.1875 9.4375 C9.99204196 14.35414533 9.08242664 18.26411164 6.703125 22.5703125 C3.14575201 26.95284933 -1.93350873 28.90126041 -7.37109375 29.9140625 C-13.84655722 30.29794333 -18.70823364 28.3670574 -23.8125 24.4375 C-26.96971606 21.04926813 -28.06134647 18.47348504 -28.3125 13.9375 C-28.08647305 9.45463217 -26.82492101 6.84629219 -23.8125 3.4375 C-16.42671698 -2.13951983 -8.72206503 -3.41869886 0 0 Z " fill="#1D06AF" transform="translate(307.8125,875.5625)"/>
<path d="M0 0 C3.78406717 2.24241017 6.35212358 4.53952104 8.625 8.375 C9.5585871 13.44776528 9.21955511 17.20712389 6.875 21.8125 C3.0245 26.19779167 -0.71485552 28.95145996 -6.63671875 29.63671875 C-14.08576131 29.96753381 -19.14691957 28.10645267 -24.8125 23.3125 C-27.81830465 19.58530223 -27.83223834 15.55653762 -27.78515625 10.94921875 C-27.08628243 6.56295354 -24.70638477 4.14474254 -21.375 1.375 C-15.20817538 -3.07085031 -6.8378882 -3.09518045 0 0 Z " fill="#1C04AE" transform="translate(453.375,875.625)"/>
<path d="M0 0 C3.97465309 2.37882615 7.46343304 4.94533037 9.70703125 9.05859375 C10.61702046 14.69634296 9.94189838 19.26206662 6.70703125 24.05859375 C0.91104242 29.41988342 -4.17691609 29.46950136 -11.828125 29.3984375 C-15.82360676 29.00654696 -18.06028838 28.26923524 -21.02734375 25.609375 C-24.09458904 21.85105284 -25.14779783 18.24069981 -25.73046875 13.49609375 C-25.19248135 9.26904989 -24.03420068 7.30478946 -21.29296875 4.05859375 C-14.95049887 -0.7306182 -7.71625692 -3.16800327 0 0 Z " fill="#1C04AE" transform="translate(381.29296875,874.94140625)"/>
<path d="M0 0 C2.97 0 5.94 0 9 0 C9 4.29 9 8.58 9 13 C13.95 13 18.9 13 24 13 C24 15.97 24 18.94 24 22 C19.05 22 14.1 22 9 22 C9 33.88 9 45.76 9 58 C6.03 58 3.06 58 0 58 C0 46.12 0 34.24 0 22 C-4.29 22 -8.58 22 -13 22 C-13 19.03 -13 16.06 -13 13 C-8.71 13 -4.42 13 0 13 C0 8.71 0 4.42 0 0 Z " fill="#F8F7FC" transform="translate(500,854)"/>
<path d="M0 0 C4.02246697 -0.16246314 8.03833378 -0.28115492 12.0625 -0.375 C13.19623047 -0.42527344 14.32996094 -0.47554687 15.49804688 -0.52734375 C24.97986513 -0.69320646 24.97986513 -0.69320646 29.29296875 2.734375 C31.19361259 4.72038501 31.92889414 5.7320523 32.640625 8.4140625 C31.93000163 12.43619079 31.51517314 14.45771248 28.625 17.5 C24.79107033 19.69081695 22.01740636 20.12164313 17.67578125 20.09765625 C16.64775391 20.09443359 15.61972656 20.09121094 14.56054688 20.08789062 C13.48869141 20.07951172 12.41683594 20.07113281 11.3125 20.0625 C10.22904297 20.05798828 9.14558594 20.05347656 8.02929688 20.04882812 C5.35284106 20.03703757 2.67641361 20.01910208 0 20 C0 13.4 0 6.8 0 0 Z " fill="#1C05AE" transform="translate(208,861)"/>
<path d="M0 0 C2.97 0 5.94 0 9 0 C9 14.85 9 29.7 9 45 C6.03 45 3.06 45 0 45 C0 30.15 0 15.3 0 0 Z " fill="#F3F2FB" transform="translate(547,867)"/>
<path d="M0 0 C1.875 1.1875 1.875 1.1875 3 3 C3.42317323 5.82115488 3.38718434 7.33950907 1.9375 9.8125 C-1.08503156 11.66501934 -3.54932719 11.37643703 -7 11 C-9.15502531 7.76746204 -9.46856135 6.74849077 -9 3 C-6.73529086 -0.64869805 -4.03159541 -0.50394943 0 0 Z " fill="#F5F3FB" transform="translate(555,846)"/>
</svg>
